# xmcd
#
# Track frame offsets:
#   150
#   14565
#   30861
#   52607
#   71061
#   88642
#   104058
#   122412
#   137556
#   154485
#   169107
#   186332
#   209462
#
# Disc length: 3039 seconds
#
# Revision: 0
# Processed by: cddbd v1.5.2PL0 Copyright (c) Steve Scherf et al.
# Submitted via: uFREEDB ActiveX Control 1.5
#
DISCID=af0bdd0d
DTITLE=Zezé Di Camargo and Luciano - Diferente
DYEAR=2006
DGENRE=Country
TTITLE0=Amor Que Fica (Part Especial Ivete Sangalo)
TTITLE1=Diz Pro Meu Olhar
TTITLE2=Foi Só Engano
TTITLE3=Minha História (Part Especial Chico Buarque)
TTITLE4=A Saudade É uma Pedra
TTITLE5=Tempo Perdido
TTITLE6=Nunca Mais Ficar Sozinho
TTITLE7=Tô com a Maior Moral
TTITLE8=Que Seja Bem-Vinda
TTITLE9=Essa Noite
TTITLE10=Olha Eu Aí
TTITLE11=Hey Jude
TTITLE12=How Can I Go On? (Part Especial Silvinha Araujo)
EXTD=
EXTT0=
EXTT1=
EXTT2=
EXTT3=
EXTT4=
EXTT5=
EXTT6=
EXTT7=
EXTT8=
EXTT9=
EXTT10=
EXTT11=
EXTT12=
PLAYORDER=
